<?xml version="1.0" encoding="UTF-8"?>
<svg xmlns="http://www.w3.org/2000/svg" width="900" height="600" viewBox="0 0 9 6">
<rect width="9" height="2" fill="#FF9933"/>
<rect width="9" height="2" y="2" fill="#FFFFFF"/>
<rect width="9" height="2" y="4" fill="#138808"/>
<circle transform="translate(4.5,3)" fill="#000080" r="0.7"/>
<circle transform="translate(4.5,3)" fill="#FFFFFF" r="0.65"/>
<g id="wheel" fill="#000080">
  <circle transform="translate(4.5,3)" r="0.15"/>
  <g id="spokes">
    <g id="spoke">
      <line x1="4.5" y1="2.35" x2="4.5" y2="3.65" stroke="#000080" stroke-width="0.08"/>
    </g>
    <use href="#spoke" transform="rotate(15, 4.5, 3)"/>
    <use href="#spoke" transform="rotate(30, 4.5, 3)"/>
    <use href="#spoke" transform="rotate(45, 4.5, 3)"/>
    <use href="#spoke" transform="rotate(60, 4.5, 3)"/>
    <use href="#spoke" transform="rotate(75, 4.5, 3)"/>
    <use href="#spoke" transform="rotate(90, 4.5, 3)"/>
    <use href="#spoke" transform="rotate(105, 4.5, 3)"/>
    <use href="#spoke" transform="rotate(120, 4.5, 3)"/>
    <use href="#spoke" transform="rotate(135, 4.5, 3)"/>
    <use href="#spoke" transform="rotate(150, 4.5, 3)"/>
    <use href="#spoke" transform="rotate(165, 4.5, 3)"/>
    <use href="#spoke" transform="rotate(180, 4.5, 3)"/>
    <use href="#spoke" transform="rotate(195, 4.5, 3)"/>
    <use href="#spoke" transform="rotate(210, 4.5, 3)"/>
    <use href="#spoke" transform="rotate(225, 4.5, 3)"/>
    <use href="#spoke" transform="rotate(240, 4.5, 3)"/>
    <use href="#spoke" transform="rotate(255, 4.5, 3)"/>
    <use href="#spoke" transform="rotate(270, 4.5, 3)"/>
    <use href="#spoke" transform="rotate(285, 4.5, 3)"/>
    <use href="#spoke" transform="rotate(300, 4.5, 3)"/>
    <use href="#spoke" transform="rotate(315, 4.5, 3)"/>
    <use href="#spoke" transform="rotate(330, 4.5, 3)"/>
    <use href="#spoke" transform="rotate(345, 4.5, 3)"/>
  </g>
</g>
</svg>