<?xml version="1.0" encoding="UTF-8"?>
<svg width="800" height="600" viewBox="0 0 800 600" xmlns="http://www.w3.org/2000/svg">
  <defs>
    <linearGradient id="bg-gradient" x1="0%" y1="0%" x2="100%" y2="100%">
      <stop offset="0%" stop-color="#1e272e" stop-opacity="0.85"/>
      <stop offset="100%" stop-color="#3c6382" stop-opacity="0.85"/>
    </linearGradient>
    
    <linearGradient id="highlight-gradient" x1="0%" y1="0%" x2="100%" y2="100%">
      <stop offset="0%" stop-color="#0abde3" stop-opacity="0.7"/>
      <stop offset="100%" stop-color="#48dbfb" stop-opacity="0.7"/>
    </linearGradient>
  </defs>
  
  <!-- Background -->
  <rect width="800" height="600" fill="url(#bg-gradient)"/>
  
  <!-- Camera View/Visual Field -->
  <g>
    <!-- Camera Viewfinder Elements -->
    <rect x="150" y="150" width="500" height="300" fill="none" stroke="#fff" stroke-width="2" stroke-dasharray="5,5"/>
    
    <!-- Corner Brackets -->
    <path d="M150,180 L150,150 L180,150" fill="none" stroke="#0abde3" stroke-width="3"/>
    <path d="M620,150 L650,150 L650,180" fill="none" stroke="#0abde3" stroke-width="3"/>
    <path d="M650,420 L650,450 L620,450" fill="none" stroke="#0abde3" stroke-width="3"/>
    <path d="M180,450 L150,450 L150,420" fill="none" stroke="#0abde3" stroke-width="3"/>
    
    <!-- Grid Lines -->
    <line x1="150" y1="300" x2="650" y2="300" stroke="#fff" stroke-width="1" opacity="0.3"/>
    <line x1="400" y1="150" x2="400" y2="450" stroke="#fff" stroke-width="1" opacity="0.3"/>
    
    <!-- Object Recognition Boxes -->
    <rect x="250" y="200" width="90" height="140" fill="none" stroke="#0abde3" stroke-width="2" rx="2" ry="2"/>
    <text x="250" y="195" font-family="Arial, sans-serif" font-size="12" fill="#0abde3">Chair (98%)</text>
    
    <rect x="410" y="220" width="180" height="100" fill="none" stroke="#0abde3" stroke-width="2" rx="2" ry="2"/>
    <text x="410" y="215" font-family="Arial, sans-serif" font-size="12" fill="#0abde3">Table (92%)</text>
    
    <!-- Feature Points -->
    <g fill="#48dbfb" opacity="0.8">
      <circle cx="270" cy="220" r="2"/>
      <circle cx="290" cy="230" r="2"/>
      <circle cx="280" cy="250" r="2"/>
      <circle cx="260" cy="260" r="2"/>
      <circle cx="300" cy="280" r="2"/>
      <circle cx="320" cy="300" r="2"/>
      
      <circle cx="430" cy="240" r="2"/>
      <circle cx="450" cy="230" r="2"/>
      <circle cx="470" cy="250" r="2"/>
      <circle cx="490" cy="240" r="2"/>
      <circle cx="510" cy="260" r="2"/>
      <circle cx="530" cy="280" r="2"/>
      <circle cx="490" cy="290" r="2"/>
      <circle cx="470" cy="300" r="2"/>
    </g>
    
    <!-- AR Annotations -->
    <line x1="320" y1="260" x2="380" y2="260" stroke="#fff" stroke-width="1" stroke-dasharray="3,2"/>
    <rect x="380" y="245" width="100" height="30" fill="rgba(255,255,255,0.1)" rx="5" ry="5"/>
    <text x="430" y="265" font-family="Arial, sans-serif" font-size="12" fill="#fff" text-anchor="middle">Office Chair</text>
    
    <line x1="560" y1="280" x2="620" y2="320" stroke="#fff" stroke-width="1" stroke-dasharray="3,2"/>
    <rect x="570" y="320" width="110" height="50" fill="rgba(255,255,255,0.1)" rx="5" ry="5"/>
    <text x="625" y="340" font-family="Arial, sans-serif" font-size="12" fill="#fff" text-anchor="middle">Coffee Table</text>
    <text x="625" y="355" font-family="Arial, sans-serif" font-size="10" fill="#fff" text-anchor="middle">IKEA - $149.99</text>
  </g>
  
  <!-- Computer Vision Elements -->
  <g>
    <!-- Semantic Segmentation Visualization -->
    <path d="M250,340 C280,350 320,360 350,340 C380,320 420,340 450,360 C480,380 520,370 550,350 Z" fill="url(#highlight-gradient)" opacity="0.2" stroke="#0abde3" stroke-width="1"/>
    
    <!-- Edge Detection -->
    <path d="M200,180 L220,200 L240,190 L260,220 L280,210 L300,230 L320,200" fill="none" stroke="#0abde3" stroke-width="1" opacity="0.5"/>
    <path d="M420,190 L440,210 L460,200 L480,220 L500,210 L520,190 L540,200 L560,180" fill="none" stroke="#0abde3" stroke-width="1" opacity="0.5"/>
    
    <!-- Depth Visualization -->
    <g opacity="0.4">
      <rect x="170" y="400" width="120" height="20" fill="#0abde3"/>
      <text x="230" y="414" font-family="Arial, sans-serif" font-size="10" fill="#fff" text-anchor="middle">Depth Map</text>
    </g>
  </g>
  
  <!-- Augmented Reality Interface Elements -->
  <g>
    <!-- AR Glasses Overlay -->
    <rect x="100" y="100" width="600" height="400" rx="20" ry="20" fill="none" stroke="#fff" stroke-width="2" stroke-dasharray="10,5" opacity="0.3"/>
    
    <!-- System Info -->
    <g transform="translate(120, 120)">
      <rect x="0" y="0" width="150" height="20" fill="rgba(0,0,0,0.3)" rx="3" ry="3"/>
      <text x="10" y="14" font-family="monospace" font-size="10" fill="#fff">CV-AR System v2.4.1</text>
      <circle cx="140" cy="10" r="5" fill="#48dbfb"/>
    </g>
    
    <!-- AR Menu -->
    <g transform="translate(650, 200)">
      <rect x="-30" y="0" width="30" height="30" fill="rgba(255,255,255,0.1)" rx="5" ry="5"/>
      <rect x="-30" y="40" width="30" height="30" fill="rgba(255,255,255,0.1)" rx="5" ry="5"/>
      <rect x="-30" y="80" width="30" height="30" fill="rgba(255,255,255,0.1)" rx="5" ry="5"/>
      <rect x="-30" y="120" width="30" height="30" fill="rgba(255,255,255,0.1)" rx="5" ry="5"/>
      <line x1="-23" y1="10" x2="-7" y2="10" stroke="#fff" stroke-width="2"/>
      <line x1="-23" y1="20" x2="-7" y2="20" stroke="#fff" stroke-width="2"/>
      <rect x="-23" y="47" width="16" height="16" fill="none" stroke="#fff" stroke-width="2"/>
      <circle cx="-15" cy="95" r="8" fill="none" stroke="#fff" stroke-width="2"/>
      <path d="M-23,127 L-15,133 L-7,127" fill="none" stroke="#fff" stroke-width="2"/>
    </g>
  </g>
  
  <!-- Title -->
  <text x="400" y="520" font-family="Arial, sans-serif" font-size="36" font-weight="bold" fill="#fff" text-anchor="middle">Computer Vision for AR</text>
  <text x="400" y="550" font-family="Arial, sans-serif" font-size="18" fill="#fff" text-anchor="middle" opacity="0.8">Advanced recognition, tracking, and understanding</text>
</svg>