<?xml version="1.0" encoding="UTF-8"?>
<svg width="800" height="600" viewBox="0 0 800 600" xmlns="http://www.w3.org/2000/svg">
  <defs>
    <linearGradient id="bg-gradient" x1="0%" y1="0%" x2="100%" y2="100%">
      <stop offset="0%" stop-color="#6a89cc" stop-opacity="0.2"/>
      <stop offset="100%" stop-color="#6a89cc" stop-opacity="0.6"/>
    </linearGradient>
  </defs>
  
  <!-- Background -->
  <rect width="800" height="600" fill="url(#bg-gradient)"/>
  
  <!-- Neural Network Diagram -->
  <g>
    <!-- Input Layer -->
    <g transform="translate(200, 120)">
      <circle cx="0" cy="0" r="15" fill="#fff" opacity="0.8"/>
      <circle cx="0" cy="60" r="15" fill="#fff" opacity="0.8"/>
      <circle cx="0" cy="120" r="15" fill="#fff" opacity="0.8"/>
      <circle cx="0" cy="180" r="15" fill="#fff" opacity="0.8"/>
      <circle cx="0" cy="240" r="15" fill="#fff" opacity="0.8"/>
      <circle cx="0" cy="300" r="15" fill="#fff" opacity="0.8"/>
      <circle cx="0" cy="360" r="15" fill="#fff" opacity="0.8"/>
    </g>
    
    <!-- Hidden Layer 1 (with some neurons pruned/ghosted) -->
    <g transform="translate(300, 140)">
      <circle cx="0" cy="0" r="15" fill="#fff" opacity="0.8"/>
      <circle cx="0" cy="60" r="15" fill="#fff" opacity="0.8"/>
      <circle cx="0" cy="120" r="15" fill="#fff" opacity="0.3"/> <!-- Pruned neuron -->
      <circle cx="0" cy="180" r="15" fill="#fff" opacity="0.8"/>
      <circle cx="0" cy="240" r="15" fill="#fff" opacity="0.3"/> <!-- Pruned neuron -->
      <circle cx="0" cy="300" r="15" fill="#fff" opacity="0.8"/>
    </g>
    
    <!-- Hidden Layer 2 (with more neurons pruned/ghosted) -->
    <g transform="translate(400, 160)">
      <circle cx="0" cy="0" r="15" fill="#fff" opacity="0.8"/>
      <circle cx="0" cy="80" r="15" fill="#fff" opacity="0.3"/> <!-- Pruned neuron -->
      <circle cx="0" cy="160" r="15" fill="#fff" opacity="0.8"/>
      <circle cx="0" cy="240" r="15" fill="#fff" opacity="0.8"/>
    </g>
    
    <!-- Output Layer -->
    <g transform="translate(500, 180)">
      <circle cx="0" cy="0" r="15" fill="#fff" opacity="0.8"/>
      <circle cx="0" cy="80" r="15" fill="#fff" opacity="0.8"/>
      <circle cx="0" cy="160" r="15" fill="#fff" opacity="0.8"/>
    </g>
    
    <!-- Mobile Phone Outline -->
    <g transform="translate(600, 240)">
      <rect x="-40" y="-80" width="80" height="160" rx="10" ry="10" fill="none" stroke="#fff" stroke-width="3"/>
      <rect x="-35" y="-70" width="70" height="120" rx="5" ry="5" fill="#1e3799" opacity="0.3"/>
      <circle cx="0" cy="70" r="10" fill="none" stroke="#fff" stroke-width="2"/>
    </g>
    
    <!-- Connections -->
    <g stroke="#fff" stroke-width="1" opacity="0.5">
      <!-- Input to Hidden 1 (some connections pruned) -->
      <line x1="215" y1="120" x2="285" y2="140"/>
      <line x1="215" y1="120" x2="285" y2="200"/>
      <line x1="215" y1="180" x2="285" y2="140"/>
      <line x1="215" y1="180" x2="285" y2="200"/>
      <line x1="215" y1="180" x2="285" y2="320"/>
      <line x1="215" y1="240" x2="285" y2="200"/>
      <line x1="215" y1="240" x2="285" y2="320"/>
      <line x1="215" y1="300" x2="285" y2="320"/>
      <line x1="215" y1="300" x2="285" y2="440"/>
      <line x1="215" y1="360" x2="285" y2="320"/>
      <line x1="215" y1="360" x2="285" y2="440"/>
      
      <!-- Hidden 1 to Hidden 2 (some connections pruned) -->
      <line x1="315" y1="140" x2="385" y2="160"/>
      <line x1="315" y1="200" x2="385" y2="160"/>
      <line x1="315" y1="200" x2="385" y2="320"/>
      <line x1="315" y1="200" x2="385" y2="400"/>
      <line x1="315" y1="320" x2="385" y2="320"/>
      <line x1="315" y1="320" x2="385" y2="400"/>
      <line x1="315" y1="440" x2="385" y2="400"/>
      
      <!-- Hidden 2 to Output -->
      <line x1="415" y1="160" x2="485" y2="180"/>
      <line x1="415" y1="160" x2="485" y2="260"/>
      <line x1="415" y1="320" x2="485" y2="260"/>
      <line x1="415" y1="320" x2="485" y2="340"/>
      <line x1="415" y1="400" x2="485" y2="340"/>
      
      <!-- Output to Mobile -->
      <line x1="515" y1="180" x2="560" y2="190" stroke-dasharray="4,2"/>
      <line x1="515" y1="260" x2="560" y2="240" stroke-dasharray="4,2"/>
      <line x1="515" y1="340" x2="560" y2="290" stroke-dasharray="4,2"/>
    </g>
  </g>
  
  <!-- Optimization Elements -->
  <g>
    <!-- Quantization Indicator -->
    <g transform="translate(350, 480)">
      <rect x="-50" y="-20" width="100" height="40" rx="5" ry="5" fill="#fff" opacity="0.2" stroke="#fff" stroke-width="1"/>
      <text x="0" y="5" font-family="Arial, sans-serif" font-size="12" fill="#fff" text-anchor="middle">Quantization</text>
      <text x="0" y="20" font-family="monospace" font-size="10" fill="#fff" text-anchor="middle">32-bit → 8-bit</text>
    </g>
    
    <!-- Pruning Indicator -->
    <g transform="translate(350, 540)">
      <rect x="-50" y="-20" width="100" height="40" rx="5" ry="5" fill="#fff" opacity="0.2" stroke="#fff" stroke-width="1"/>
      <text x="0" y="5" font-family="Arial, sans-serif" font-size="12" fill="#fff" text-anchor="middle">Pruning</text>
      <text x="0" y="20" font-family="monospace" font-size="10" fill="#fff" text-anchor="middle">-40% weights</text>
    </g>
    
    <!-- Distillation Indicator -->
    <g transform="translate(480, 510)">
      <rect x="-50" y="-20" width="100" height="40" rx="5" ry="5" fill="#fff" opacity="0.2" stroke="#fff" stroke-width="1"/>
      <text x="0" y="5" font-family="Arial, sans-serif" font-size="12" fill="#fff" text-anchor="middle">Distillation</text>
      <text x="0" y="20" font-family="monospace" font-size="10" fill="#fff" text-anchor="middle">Teacher→Student</text>
    </g>
  </g>
  
  <!-- Title -->
  <text x="400" y="80" font-family="Arial, sans-serif" font-size="36" font-weight="bold" fill="#fff" text-anchor="middle">Deep Learning Optimization</text>
  <text x="400" y="120" font-family="Arial, sans-serif" font-size="18" fill="#fff" text-anchor="middle" opacity="0.8">For Mobile Devices</text>
</svg>